<?xml version="1.0" standalone="no"?>
<!DOCTYPE svg PUBLIC "-//W3C//DTD SVG 20010904//EN"
 "http://www.w3.org/TR/2001/REC-SVG-20010904/DTD/svg10.dtd">
<svg version="1.0" xmlns="http://www.w3.org/2000/svg"
 width="200.000000pt" height="200.000000pt" viewBox="0 0 200.000000 200.000000"
 preserveAspectRatio="xMidYMid meet">

<g transform="translate(0.000000,200.000000) scale(0.100000,-0.100000)"
fill="#000000" stroke="none">
<path d="M823 1860 c-19 -8 -23 -17 -23 -54 l0 -44 48 15 c91 28 203 -2 230
-62 17 -38 15 -95 -6 -135 -29 -55 -90 -83 -189 -88 l-83 -5 0 -42 0 -42 99
-5 c83 -4 106 -9 144 -31 104 -61 93 -213 -19 -267 -36 -18 -62 -22 -134 -22
l-90 0 0 -63 0 -63 48 15 c91 28 203 -2 230 -62 17 -38 15 -95 -6 -135 -29
-55 -90 -83 -189 -88 l-83 -5 0 -42 0 -42 99 -5 c83 -4 106 -9 144 -31 104
-61 93 -213 -19 -267 -36 -18 -62 -22 -134 -22 l-90 0 0 -39 c0 -33 4 -40 26
-45 15 -4 65 -4 112 -1 146 11 242 74 272 178 24 84 0 184 -54 227 -15 11 -50
28 -77 37 l-50 17 49 23 c28 13 62 39 78 60 24 32 29 49 32 110 5 82 -16 137
-65 174 -27 20 -27 21 -9 33 62 36 98 102 103 188 4 54 0 73 -19 110 -26 50
-71 85 -131 101 l-40 10 50 24 c29 13 63 39 79 60 24 32 29 49 32 109 4 94
-22 148 -92 191 -45 27 -58 30 -150 32 -56 2 -111 -1 -123 -7z"/>
</g>
</svg>
